<svg width="296" height="78" viewBox="0 0 296 78" fill="none" xmlns="http://www.w3.org/2000/svg">
<path d="M36.7823 73.2376L36.7744 72.8435L36.7823 73.2376ZM27.3481 76.5099C20.3219 73.2671 13.0808 74.0282 8.67528 76.9448C11.6319 73.4483 14.101 72.0143 17.5621 71.9962C17.5971 71.5658 17.5553 70.6223 16.7952 69.3243C16.7952 69.3243 19.6116 64.2658 28.2846 61.1362C22.3329 60.2323 15.3802 67.0408 15.3802 67.0408C15.3802 67.0408 17.4885 60.1972 29.384 57.4562C19.9441 56.6452 15.6935 63.0697 15.6935 63.0697L0 62.159C0 62.159 3.77098 57.7903 1.99973 49.7371C1.99973 49.7371 6.78527 42.6919 3.96326 36.6389C3.96326 36.6389 8.09618 33.0835 6.53191 26.7179C6.53191 26.7179 9.39238 26.2456 8.37894 19.4779L11.6059 19.6489C11.6059 19.6489 14.4765 16.4559 12.5503 12.7125C12.5503 12.7125 15.2242 9.0211 13.2991 5.19382C16.2512 5.26744 18.9883 5.45433 21.4009 5.6888C22.3634 5.349 22.5082 4.555 22.5082 4.555L22.5422 2.82881C20.4893 2.81069 20.3434 2.02915 18.226 1.82301C16.6335 1.66783 14.7254 3.96148 14.7254 3.96148C14.9606 2.62833 15.9322 0.60992 17.6695 0.128537C19.9667 -0.508022 21.5118 1.49 23.8712 0.283712L24.025 4.67393C24.0634 5.42488 25.0893 6.06371 25.173 6.11355C29.2245 6.63684 31.7027 7.17938 31.7027 7.17938C31.7027 7.17938 35.1309 8.65525 35.3142 12.367C35.3142 12.367 42.1775 15.722 44.1614 24.0912C44.1614 24.0912 52.4102 30.9087 52.4102 40.4039C52.4102 40.4039 59.7803 47.6654 56.7614 62.885C56.7614 62.885 53.168 58.778 51.0665 58.2434L50.7758 64.9476L42.1187 64.5308C42.1187 64.5308 42.2521 66.2683 41.3789 67.4848C38.8159 71.0504 39.1032 73.1561 39.231 73.6646C42.588 74.6308 46.0027 74.7395 51.7972 71.9781C48.525 76.5224 44.3322 78.1477 36.8694 76.3253L36.7812 73.2376C36.7732 73.1198 36.7687 72.9873 36.7732 72.8435C36.806 71.7504 37.2324 69.9789 38.4585 68.0998C40.6845 64.6951 40.1314 61.7818 35.6682 58.274C35.6682 58.274 37.8715 53.0501 38.4054 52.6673C38.4054 52.6673 52.0947 54.4897 54.6905 58.0372C54.6905 58.0372 56.7117 45.9619 50.3211 41.967C50.3211 41.967 38.4495 36.17 12.3965 36.3625C12.3965 36.3625 31.8237 30.9359 49.9603 39.1194C49.9603 39.1194 50.0169 31.8092 43.7033 26.6465C43.7033 26.6465 37.2381 23.2553 14.8509 22.7354C14.8509 22.7354 26.1141 18.5638 41.716 23.5985C41.716 23.5985 40.5386 17.1559 35.6026 14.809C35.6026 14.809 27.3492 12.3511 17.3664 12.1756C17.3664 12.1756 23.5929 9.86154 33.3337 12.6977C33.3337 12.6977 33.2748 9.88193 30.7209 8.8512C30.7209 8.8512 20.5888 6.64703 15.6438 7.17938C15.6438 7.17938 16.3484 10.9172 14.8769 12.6049C14.8769 12.6049 15.956 18.5785 12.4553 22.9393C12.4553 22.9393 13.3568 31.2542 9.0327 36.3218C9.0327 36.3218 12.1454 45.2245 8.19684 54.5407C8.19684 54.5407 18.3855 51.555 35.1377 52.1191L42.9613 40.8875C42.9613 40.8875 44.158 40.5636 44.2145 41.7019L36.9689 52.6865C31.9436 60.5733 32.0906 75.0805 32.0906 75.0805C32.0906 75.0805 30.8906 69.0547 25.6153 69.4681C25.6153 69.4681 28.2507 71.8988 28.1681 74.2208C28.2156 74.2378 28.0606 75.6208 27.3481 76.5099Z" fill="#00126D"/>
<path d="M281.294 33.42C281.294 33.42 279.212 28.6803 278.677 27.0352L277.561 27.2768C276.351 31.6293 274.461 35.7899 273.395 37.9662L267 50.9277C264.957 55.0883 263.64 56.2022 261.164 56.7814L261.21 57.9415C265.195 57.9415 266.85 57.9415 270.244 58.1351L270.386 56.8294C269.465 56.7316 267.868 56.586 267.868 55.2358C267.868 53.2514 273.386 41.5015 274.649 38.8402C275.909 36.1328 276.055 35.8415 276.588 34.5837C283.855 51.0734 285.403 54.5554 285.403 55.767C285.403 56.5895 285.067 56.5895 282.548 56.6855V57.945H295.044V56.9306C292.333 56.8329 292.283 56.8329 288.938 50.1105L281.294 33.42ZM245.291 35.6247C245.291 41.8248 240.3 41.8248 237.977 41.8248C236.669 41.8248 236.475 41.7804 235.751 41.6329C235.701 37.419 235.701 36.8381 235.896 32.2351C236.038 29.1351 236.038 28.5026 238.559 28.5026C244.424 28.5044 245.291 33.8802 245.291 35.6247ZM227.126 58.0551C230.711 57.7158 231.094 57.7158 233.084 57.7158C234.445 57.7158 235.17 57.7158 235.992 57.7656C236.77 57.81 237.641 57.8633 239.192 58.0551L239.385 56.8933C238.705 56.7956 236.767 56.3603 236.138 55.4419C235.509 54.4257 235.509 49.5793 235.509 47.9822C235.509 45.2695 235.553 44.3954 235.607 43.3331C236.818 43.477 237.202 43.477 238.511 43.5232C246.461 59.4639 253.24 59.4639 257.941 59.3662V58.1067C253.047 57.7158 249.318 53.3101 243.892 42.9422C247.719 41.6827 250.528 38.7301 250.528 35.1415C250.528 31.5085 247.474 27.0512 239.535 27.0512C238.952 27.0512 237.301 27.1969 235.61 27.3426C233.96 27.4882 232.265 27.5859 231.638 27.5859C231.055 27.5859 228.195 27.538 227.522 27.538L227.326 28.7975C228.346 28.8455 230.282 28.897 230.572 31.0733C230.718 32.1871 230.764 33.2033 230.764 39.5011C230.764 41.974 230.67 53.0684 230.33 54.3742C229.995 55.9233 229.216 56.2626 227.131 56.8933V58.0551H227.126ZM213.544 38.0479H212.428C212.428 38.0959 211.993 40.4693 211.169 40.8122C210.781 41.0023 208.262 41.3451 204.871 41.3451C203.176 41.3451 201.577 41.2474 200.465 41.1995C200.419 38.9237 200.419 38.0514 200.419 36.9855C200.419 34.1751 200.563 32.3826 200.9 29.4744C202.986 29.1848 205.018 28.9396 207.008 28.9396C211.803 28.9396 213.837 29.7639 213.837 31.6044C213.837 32.2333 213.695 32.912 213.549 33.4947C213.885 33.5391 214.324 33.6386 214.565 33.6386C215.194 33.6386 215.923 30.5385 215.777 27.1951C212.631 27.4385 210.931 27.4385 207.541 27.4385H192.233V28.2628C192.281 28.309 192.572 28.3587 192.764 28.4067C194.558 28.8437 194.992 29.0853 195.189 31.7501C195.189 33.1074 195.523 39.0641 195.523 40.2774C195.523 43.4752 195.425 51.8568 194.944 54.5678C194.652 56.1649 193.682 56.4083 191.941 56.7494L191.794 58.009C196.543 57.7176 198.625 57.6217 203.084 57.6217C205.356 57.6217 206.907 57.6217 208.701 57.6679C210.495 57.7141 212.578 57.8118 215.77 58.0054C217.177 54.7597 217.614 53.3562 217.857 50.5937H216.79C216.161 52.372 214.852 56.1134 207.582 56.1134C204.823 56.1134 202.499 55.7243 200.895 55.433C200.654 54.1219 200.316 52.3223 200.316 49.6469C200.316 49.5012 200.462 43.9104 200.462 43.2282C201.576 43.0364 202.203 42.9369 204.192 42.9369C211.847 42.9369 211.847 43.1305 212.428 47.3143H213.544V38.0479ZM163.25 52.1073C163.25 52.1073 165.334 56.8471 165.867 58.494L166.981 58.2488C168.193 53.8963 170.081 49.7357 171.147 47.5612L177.543 34.5979C179.589 30.4408 180.9 29.3269 183.379 28.7442L183.329 27.5841C179.344 27.5841 177.694 27.5842 174.299 27.3905L174.153 28.698C175.073 28.7957 176.672 28.9396 176.672 30.2934C176.672 32.2742 171.149 44.0277 169.891 46.6889C168.632 49.3981 168.484 49.6877 167.953 50.9455C160.687 34.4522 159.136 30.9702 159.136 29.7604C159.136 28.9361 159.474 28.9361 161.994 28.8402V27.5806H149.497V28.5968C152.209 28.6945 152.257 28.6945 155.601 35.4169L163.25 52.1073ZM125.991 57.7141C127.493 57.6181 129.383 57.5222 133.016 57.6181L140.717 57.7141L140.815 56.5042C137.182 56.2129 136.892 55.9233 136.551 54.4701C136.26 53.0684 136.26 43.9282 136.26 41.7022C136.26 39.2329 136.26 30.9187 137.422 29.6112C137.955 29.032 138.729 28.8881 141.104 28.8881V27.3372C139.843 27.4349 135.581 27.5806 134.369 27.5806C134.126 27.5806 132.481 27.5326 130.687 27.4349C128.942 27.3372 127.054 27.2892 126.423 27.2892L126.375 28.5968C130.056 28.5968 130.445 29.4211 130.687 29.9025C131.413 31.3113 131.413 40.4178 131.413 42.6456C131.413 45.2642 131.413 53.3029 130.493 54.9533C129.816 56.1134 127.635 56.3106 125.988 56.5042V57.7158H125.991V57.7141ZM115.517 54.7597C115.565 54.4701 116.05 52.8233 116.146 52.484C116.485 51.2724 116.485 50.8869 116.533 50.21L115.419 50.0643C114.062 54.2303 110.479 56.4581 106.215 56.4581C104.327 56.4581 94.7334 55.4916 94.7334 42.2156C94.7334 39.6965 94.7334 28.6039 105.487 28.6039C109.704 28.6039 112.561 30.5883 113.238 31.3646C113.916 32.0432 113.964 32.6739 114.206 34.708L114.982 34.9017C115.174 33.834 116.192 29.2345 116.387 28.3125L115.759 28.1207C115.322 28.3125 114.934 28.508 114.451 28.508C113.966 28.508 112.998 28.1722 112.465 27.975C110.333 27.1507 108.493 26.9091 106.506 26.9091C97.4959 26.9091 89.0183 31.9455 89.0183 42.459C89.0183 51.5655 96.0907 58.1084 105.488 58.1084C106.021 58.1084 110.431 58.009 114.986 56.7494L115.517 54.7597Z" fill="#00126D"/>
<path d="M162.711 76.5133L88.0662 74.1843L162.711 71.8535V76.5133Z" fill="#00126D"/>
<path d="M221.356 76.5133L296 74.1843L221.356 71.8535V76.5133Z" fill="#00126D"/>
<path d="M167.969 71.4662H170.385C171.206 71.4662 171.842 71.7575 172.293 72.3384C172.699 72.8643 172.899 73.5376 172.899 74.3584C172.899 74.989 172.78 75.5646 172.542 76.0763C172.123 76.9805 171.402 77.4335 170.378 77.4335H167.971L167.969 71.4662ZM170.224 76.7425C170.497 76.7425 170.721 76.7123 170.897 76.6572C171.212 76.5506 171.469 76.3481 171.67 76.0461C171.83 75.8044 171.944 75.4953 172.015 75.1205C172.054 74.8949 172.075 74.687 172.075 74.4934C172.075 73.7543 171.928 73.1823 171.633 72.7701C171.339 72.3633 170.867 72.1555 170.215 72.1555H168.781V76.7371H170.224V76.7425Z" fill="#00126D"/>
<path d="M174.016 71.4662H178.365V72.1981H174.803V74.0084H178.097V74.6995H174.803V76.7211H178.425V77.4335H174.016V71.4662Z" fill="#00126D"/>
<path d="M180.014 75.5078C180.034 75.8453 180.114 76.1242 180.254 76.3338C180.522 76.73 180.995 76.9272 181.672 76.9272C181.975 76.9272 182.251 76.8846 182.501 76.7975C182.983 76.6287 183.224 76.3267 183.224 75.8968C183.224 75.5681 183.123 75.3408 182.92 75.1986C182.714 75.0636 182.393 74.9446 181.954 74.8469L181.146 74.6621C180.618 74.5449 180.243 74.4116 180.025 74.2677C179.646 74.0172 179.456 73.6442 179.456 73.1503C179.456 72.612 179.641 72.1732 180.012 71.8321C180.382 71.4875 180.908 71.3169 181.588 71.3151C182.213 71.3151 182.745 71.4679 183.18 71.7717C183.619 72.0719 183.837 72.5534 183.837 73.216H183.075C183.036 72.8963 182.949 72.6546 182.816 72.4823C182.569 72.1697 182.149 72.0133 181.56 72.0133C181.084 72.0133 180.741 72.1164 180.533 72.3135C180.323 72.5143 180.22 72.747 180.22 73.0153C180.22 73.3066 180.343 73.5216 180.586 73.6548C180.746 73.7437 181.107 73.8485 181.67 73.9817L182.507 74.17C182.91 74.2642 183.221 74.3885 183.441 74.5484C183.819 74.8273 184.009 75.2342 184.009 75.7653C184.009 76.4244 183.768 76.8988 183.286 77.183C182.807 77.4655 182.249 77.6076 181.613 77.6076C180.872 77.6076 180.289 77.4193 179.87 77.0409C179.451 76.6643 179.245 76.1544 179.254 75.5095H180.014V75.5078Z" fill="#00126D"/>
<path d="M185.07 71.4662H187.486C188.307 71.4662 188.943 71.7575 189.396 72.3384C189.799 72.8643 190 73.5376 190 74.3584C190 74.989 189.881 75.5646 189.642 76.0763C189.223 76.9805 188.502 77.4335 187.479 77.4335H185.071L185.07 71.4662ZM187.324 76.7425C187.598 76.7425 187.823 76.7123 187.997 76.6572C188.312 76.5506 188.569 76.3481 188.77 76.0461C188.93 75.8044 189.046 75.4953 189.115 75.1205C189.156 74.8949 189.175 74.687 189.175 74.4934C189.175 73.7543 189.028 73.1823 188.733 72.7701C188.44 72.3633 187.967 72.1555 187.315 72.1555H185.882V76.7371H187.324V76.7425Z" fill="#00126D"/>
<path d="M191.117 71.4662H195.466V72.1981H191.904V74.0084H195.201V74.6995H191.904V76.7211H195.526V77.4335H191.117V71.4662Z" fill="#00126D"/>
<path d="M199.062 73.3138V72.7542C199.59 72.7044 199.957 72.6174 200.165 72.4984C200.371 72.3758 200.529 72.0915 200.631 71.6421H201.21V77.4336H200.43V73.3173L199.062 73.3138Z" fill="#00126D"/>
<path d="M205.894 74.5484C206.136 74.3583 206.255 74.0208 206.255 73.5464C206.255 73.1201 206.145 72.8021 205.928 72.5924C205.716 72.3828 205.443 72.2762 205.107 72.2762C204.752 72.2762 204.468 72.3935 204.256 72.6369C204.05 72.8767 203.943 73.1929 203.943 73.5962C203.943 73.9746 204.038 74.2766 204.219 74.5022C204.404 74.7243 204.697 74.8344 205.1 74.8344C205.393 74.8326 205.654 74.7385 205.894 74.5484ZM203.995 76.0282C204.018 76.4333 204.174 76.7122 204.462 76.8668C204.611 76.9485 204.778 76.9858 204.965 76.9858C205.313 76.9858 205.612 76.8419 205.86 76.5541C206.107 76.261 206.28 75.6694 206.384 74.7793C206.219 75.0369 206.02 75.2164 205.777 75.323C205.539 75.4278 205.285 75.4775 205.002 75.4775C204.444 75.4775 204.002 75.3034 203.673 74.9534C203.347 74.6052 203.187 74.1558 203.187 73.6051C203.187 73.0774 203.348 72.6102 203.668 72.2123C203.993 71.8108 204.466 71.6118 205.096 71.6118C205.946 71.6118 206.532 71.9937 206.85 72.7577C207.029 73.1769 207.116 73.7028 207.116 74.3352C207.116 75.0458 207.008 75.6783 206.795 76.2254C206.44 77.1421 205.839 77.5969 204.992 77.5969C204.423 77.5969 203.991 77.4477 203.697 77.151C203.402 76.8526 203.254 76.4795 203.254 76.0282H203.995Z" fill="#00126D"/>
<path d="M210.757 76.547C210.949 76.2876 211.045 75.9838 211.045 75.6285C211.045 75.3319 210.959 75.0494 210.789 74.7794C210.617 74.5093 210.307 74.3725 209.862 74.3725C209.545 74.3725 209.272 74.4791 209.03 74.6852C208.794 74.8931 208.678 75.2093 208.678 75.6268C208.678 75.9963 208.787 76.3054 209.002 76.5577C209.217 76.8064 209.515 76.9307 209.899 76.9307C210.279 76.9343 210.567 76.8046 210.757 76.547ZM211.304 72.1004C211.562 72.4361 211.69 72.7843 211.691 73.1396H210.968C210.927 72.9105 210.856 72.7328 210.764 72.5996C210.585 72.3562 210.32 72.2336 209.963 72.2336C209.556 72.2336 209.229 72.4237 208.987 72.8021C208.748 73.1787 208.613 73.7188 208.584 74.4223C208.755 74.1736 208.963 73.9924 209.215 73.868C209.449 73.7579 209.707 73.7046 209.993 73.7046C210.48 73.7046 210.908 73.8609 211.269 74.1718C211.633 74.4862 211.816 74.9499 211.816 75.5646C211.816 76.094 211.643 76.563 211.3 76.9698C210.956 77.3766 210.464 77.5792 209.83 77.5792C209.284 77.5792 208.817 77.3766 208.421 76.9627C208.025 76.5488 207.827 75.8524 207.827 74.8735C207.827 74.1522 207.916 73.5376 208.09 73.0348C208.428 72.0701 209.048 71.5905 209.947 71.5905C210.601 71.594 211.052 71.761 211.304 72.1004Z" fill="#00126D"/>
<path d="M216.489 71.7149V72.3509C216.305 72.5339 216.054 72.8465 215.743 73.2978C215.432 73.7472 215.16 74.2287 214.922 74.7492C214.686 75.2555 214.508 75.7174 214.384 76.1331C214.304 76.3978 214.203 76.8331 214.079 77.4282H213.27C213.455 76.3179 213.864 75.2129 214.492 74.1168C214.862 73.4719 215.253 72.9123 215.661 72.4468H212.444V71.7131L216.489 71.7149Z" fill="#00126D"/>
</svg>
